<?xml version="1.0"?><svg fill="#000000" xmlns="http://www.w3.org/2000/svg"  viewBox="0 0 30 30" width="480px" height="480px">    <path d="M 4 5 C 2.897 5 2 5.897 2 7 L 2 21 C 2 22.103 2.897 23 4 23 L 5.171875 23 C 5.272875 22.5 5.4334531 21.847 5.6894531 21 L 4 21 L 4 7 L 26 7 L 26 21 L 24.308594 21 C 24.564594 21.847 24.727125 22.5 24.828125 23 L 26 23 C 27.103 23 28 22.103 28 21 L 28 7 C 28 5.897 27.103 5 26 5 L 4 5 z M 19 9 L 15 9.4375 L 15 12 L 19 12 L 19 9 z M 14 9.5488281 L 10 9.9863281 L 10 12 L 14 12 L 14 9.5488281 z M 10 13 L 10 15.013672 L 14 15.451172 L 14 13 L 10 13 z M 15 13 L 15 15.5625 L 19 16 L 19 13 L 15 13 z M 10.240234 18 C 9.3982344 18 8.6473281 18.522453 8.3613281 19.314453 C 7.8123281 20.836453 7 23.283703 7 24.470703 C 7 26.416703 8.57 28 10.5 28 C 12.208 28 13.679125 26.739484 13.953125 25.021484 C 13.963125 25.013484 13.968516 25.009 13.978516 25 L 16.021484 25 C 16.031484 25.008 16.036875 25.012484 16.046875 25.021484 C 16.320875 26.739484 17.792 28 19.5 28 C 21.43 28 23 26.416703 23 24.470703 C 23 23.283703 22.187672 20.836453 21.638672 19.314453 C 21.352672 18.522453 20.601766 18 19.759766 18 L 10.240234 18 z M 10 22 L 11 22 L 11 23 L 12 23 L 12 24 L 11 24 L 11 25 L 10 25 L 10 24 L 9 24 L 9 23 L 10 23 L 10 22 z M 19.5 22 C 19.776 22 20 22.224 20 22.5 C 20 22.776 19.776 23 19.5 23 C 19.224 23 19 22.776 19 22.5 C 19 22.224 19.224 22 19.5 22 z M 18.5 23 C 18.776 23 19 23.224 19 23.5 C 19 23.776 18.776 24 18.5 24 C 18.224 24 18 23.776 18 23.5 C 18 23.224 18.224 23 18.5 23 z M 20.5 23 C 20.776 23 21 23.224 21 23.5 C 21 23.776 20.776 24 20.5 24 C 20.224 24 20 23.776 20 23.5 C 20 23.224 20.224 23 20.5 23 z M 19.5 24 C 19.776 24 20 24.224 20 24.5 C 20 24.776 19.776 25 19.5 25 C 19.224 25 19 24.776 19 24.5 C 19 24.224 19.224 24 19.5 24 z"/></svg>